<svg
	id="Grupo_2522"
	data-name="Grupo 2522"
	xmlns="http://www.w3.org/2000/svg"
	width="266.143"
	height="80.439"
	viewBox="0 0 266.143 80.439"
>
	<g id="Grupo_77" data-name="Grupo 77" transform="translate(0 9.938)">
		<g id="Grupo_70" data-name="Grupo 70" transform="translate(0 2.768)">
			<path
				id="Caminho_61"
				data-name="Caminho 61"
				d="M339.387,201.579c2,0,3.435,1.1,3.435,3.15a3.368,3.368,0,0,1-3.435,3.15H320.632c-2.529,0-4.009-1.432-4.009-3.435a4.738,4.738,0,0,1,.955-2.768L332.944,180.2H320.393c-1.909,0-3.34-1.1-3.34-3.054a3.3,3.3,0,0,1,3.34-3.245H337.86c2.768,0,4.008,1.766,4.008,3.436a5.356,5.356,0,0,1-1.049,3.054l-15.271,21.189Z"
				transform="translate(-316.623 -173.9)"
				fill="#f5f5f5"
			/>
		</g>
		<g id="Grupo_71" data-name="Grupo 71" transform="translate(25.621 10.786)">
			<path
				id="Caminho_62"
				data-name="Caminho 62"
				d="M380.6,199.529c0,7.159-4.914,13.22-12.312,13.22s-12.313-6.061-12.313-13.22c0-6.967,5.06-13.314,12.313-13.314S380.6,192.562,380.6,199.529Zm-17.752,0c0,3.294,1.718,6.92,5.44,6.92s5.441-3.626,5.441-6.92-1.67-7.015-5.441-7.015S362.851,196.236,362.851,199.529Z"
				transform="translate(-355.978 -186.215)"
				fill="#f5f5f5"
			/>
		</g>
		<g id="Grupo_72" data-name="Grupo 72" transform="translate(51.962 10.786)">
			<path
				id="Caminho_63"
				data-name="Caminho 63"
				d="M396.439,190.319c0-2.29,1.432-3.818,3.436-3.818a2.9,2.9,0,0,1,3.149,2.529c1.336-1.861,3.388-2.816,6.633-2.816,5.392,0,9.4,3.436,9.4,9.258v13.172c0,2.29-1.432,3.817-3.436,3.817s-3.437-1.527-3.437-3.817V196.666c0-3.2-2-4.724-4.485-4.724-2.816,0-4.391,2.052-4.391,4.724v11.979c0,2.29-1.432,3.817-3.437,3.817s-3.436-1.527-3.436-3.817Z"
				transform="translate(-396.439 -186.215)"
				fill="#f5f5f5"
			/>
		</g>
		<g id="Grupo_73" data-name="Grupo 73" transform="translate(76.777 10.786)">
			<path
				id="Caminho_64"
				data-name="Caminho 64"
				d="M459.037,207.976c0,1.766,0,4.486-3.293,4.486-2,0-2.816-1.1-3.293-2.911a8.222,8.222,0,0,1-6.538,3.2c-6.442,0-11.357-5.489-11.357-13.22,0-7.54,5.058-13.314,11.357-13.314a7.851,7.851,0,0,1,6.538,3.15,3.262,3.262,0,0,1,3.293-2.863c3.293,0,3.293,2.72,3.293,4.485Zm-12.17-1.527c3.579,0,5.3-3.626,5.3-6.92s-1.671-7.015-5.3-7.015c-3.77,0-5.44,3.722-5.44,7.015S443.145,206.449,446.867,206.449Z"
				transform="translate(-434.555 -186.215)"
				fill="#f5f5f5"
			/>
		</g>
		<g id="Grupo_74" data-name="Grupo 74" transform="translate(110.466 2.195)">
			<path
				id="Caminho_65"
				data-name="Caminho 65"
				d="M507.635,177.793a3.308,3.308,0,0,1-3.2,3.531c-1.957,0-3.484-1.432-6.347-1.432-2.051,0-3.913,1.1-3.913,3.1,0,4.915,15.94,1.766,15.94,14.078,0,6.824-5.631,11.072-12.217,11.072-3.674,0-11.6-.859-11.6-5.345a3.185,3.185,0,0,1,3.2-3.389c2.243,0,4.916,1.861,8.017,1.861,3.15,0,4.868-1.766,4.868-4.1,0-5.631-15.94-2.243-15.94-13.314,0-6.681,5.488-10.833,11.836-10.833C500.953,173.02,507.635,174.023,507.635,177.793Z"
				transform="translate(-486.303 -173.02)"
				fill="#f5f5f5"
			/>
		</g>
		<g id="Grupo_75" data-name="Grupo 75" transform="translate(136.186 11.072)">
			<path
				id="Caminho_66"
				data-name="Caminho 66"
				d="M525.81,190.473c0-2.29,1.431-3.818,3.435-3.818s3.436,1.527,3.436,3.818v12.264a4.438,4.438,0,1,0,8.877,0V190.473c0-2.29,1.432-3.818,3.436-3.818s3.437,1.527,3.437,3.818V202.88c0,6.109-4.057,10.022-11.31,10.022s-11.31-3.913-11.31-10.022Z"
				transform="translate(-525.81 -186.655)"
				fill="#f5f5f5"
			/>
		</g>
		<g id="Grupo_76" data-name="Grupo 76" transform="translate(161.429 0)">
			<path
				id="Caminho_67"
				data-name="Caminho 67"
				d="M564.585,173.466c0-2.291,1.431-3.818,3.435-3.818s3.436,1.527,3.436,3.818v29.4c0,2.29-1.432,3.817-3.436,3.817s-3.435-1.527-3.435-3.817Z"
				transform="translate(-564.585 -169.648)"
				fill="#f5f5f5"
			/>
		</g>
	</g>
	<g id="Grupo_95" data-name="Grupo 95" transform="translate(0.594 62.015)">
		<g id="Grupo_78" data-name="Grupo 78" transform="translate(0 0.857)">
			<path
				id="Caminho_68"
				data-name="Caminho 68"
				d="M323.95,250.957c1.361,0,4.01.448,4.01,2.089a1.184,1.184,0,0,1-1.156,1.249c-.765,0-1.288-.652-2.854-.652-2.312,0-3.506,1.958-3.506,4.233,0,2.22,1.212,4.122,3.506,4.122,1.566,0,2.2-.783,2.965-.783a1.312,1.312,0,0,1,1.231,1.267c0,1.79-2.816,2.2-4.2,2.2-3.786,0-6.415-3-6.415-6.863C317.535,253.941,320.146,250.957,323.95,250.957Z"
				transform="translate(-317.535 -250.957)"
				fill="#f5f5f5"
			/>
		</g>
		<g id="Grupo_79" data-name="Grupo 79" transform="translate(11.449 4.214)">
			<path
				id="Caminho_69"
				data-name="Caminho 69"
				d="M344.689,264.617c0,.689,0,1.752-1.286,1.752-.783,0-1.1-.429-1.287-1.138a3.211,3.211,0,0,1-2.556,1.25c-2.518,0-4.439-2.144-4.439-5.167,0-2.945,1.977-5.2,4.439-5.2a3.07,3.07,0,0,1,2.556,1.231,1.275,1.275,0,0,1,1.287-1.119c1.286,0,1.286,1.063,1.286,1.753Zm-4.756-.6c1.4,0,2.069-1.417,2.069-2.7s-.652-2.74-2.069-2.74c-1.473,0-2.126,1.453-2.126,2.74S338.478,264.02,339.933,264.02Z"
				transform="translate(-335.121 -256.113)"
				fill="#f5f5f5"
			/>
		</g>
		<g id="Grupo_80" data-name="Grupo 80" transform="translate(22.507 4.326)">
			<path
				id="Caminho_70"
				data-name="Caminho 70"
				d="M352.107,257.627a1.32,1.32,0,0,1,1.38-1.342c.709,0,1.306.26,1.306,1.119h.037a2.117,2.117,0,0,1,1.884-1.119,1.311,1.311,0,0,1,1.305,1.436c0,.876-.8.932-1.6,1.305s-1.622.727-1.622,1.79v4.121a1.35,1.35,0,1,1-2.686,0Z"
				transform="translate(-352.107 -256.285)"
				fill="#f5f5f5"
			/>
		</g>
		<g id="Grupo_81" data-name="Grupo 81" transform="translate(28.55 0.298)">
			<path
				id="Caminho_71"
				data-name="Caminho 71"
				d="M364.41,251.571a1.536,1.536,0,0,1-1.511,1.548,1.574,1.574,0,0,1-1.51-1.548,1.511,1.511,0,0,1,3.021,0Zm-2.854,4.047a1.35,1.35,0,1,1,2.686,0v7.161a1.35,1.35,0,1,1-2.686,0Z"
				transform="translate(-361.389 -250.097)"
				fill="#f5f5f5"
			/>
		</g>
		<g id="Grupo_82" data-name="Grupo 82" transform="translate(32.503 4.214)">
			<path
				id="Caminho_72"
				data-name="Caminho 72"
				d="M377.084,261.315a4.824,4.824,0,1,1-9.623,0,4.826,4.826,0,1,1,9.623,0Zm-6.937,0c0,1.288.671,2.7,2.126,2.7s2.125-1.417,2.125-2.7-.652-2.74-2.125-2.74S370.146,260.028,370.146,261.315Z"
				transform="translate(-367.461 -256.113)"
				fill="#f5f5f5"
			/>
		</g>
		<g id="Grupo_83" data-name="Grupo 83" transform="translate(42.871 4.214)">
			<path
				id="Caminho_73"
				data-name="Caminho 73"
				d="M390.455,259.1c-.671,0-1.268-.521-2.126-.521-1.528,0-2.256,1.36-2.256,2.74a2.472,2.472,0,0,0,2.256,2.7,14.77,14.77,0,0,0,2-.559,1.176,1.176,0,0,1,1.155,1.174c0,1.379-2.311,1.846-3.282,1.846a4.885,4.885,0,0,1-4.81-5.167,5,5,0,0,1,4.81-5.2c1.064,0,3.282.392,3.282,1.7C391.48,258.37,391.089,259.1,390.455,259.1Z"
				transform="translate(-383.387 -256.113)"
				fill="#f5f5f5"
			/>
		</g>
		<g id="Grupo_84" data-name="Grupo 84" transform="translate(51.505 4.214)">
			<path
				id="Caminho_74"
				data-name="Caminho 74"
				d="M406.216,264.617c0,.689,0,1.752-1.288,1.752-.782,0-1.1-.429-1.286-1.138a3.214,3.214,0,0,1-2.556,1.25c-2.517,0-4.439-2.144-4.439-5.167,0-2.945,1.977-5.2,4.439-5.2a3.072,3.072,0,0,1,2.556,1.231,1.275,1.275,0,0,1,1.286-1.119c1.288,0,1.288,1.063,1.288,1.753Zm-4.756-.6c1.4,0,2.07-1.417,2.07-2.7s-.653-2.74-2.07-2.74c-1.473,0-2.126,1.453-2.126,2.74S400.006,264.02,401.46,264.02Z"
				transform="translate(-396.648 -256.113)"
				fill="#f5f5f5"
			/>
		</g>
		<g id="Grupo_85" data-name="Grupo 85" transform="translate(62.023 4.214)">
			<path
				id="Caminho_75"
				data-name="Caminho 75"
				d="M419.033,259.245c-.5,0-1.529-.782-2.406-.782-.484,0-.913.223-.913.746,0,1.249,4.662,1.062,4.662,4.12,0,1.791-1.512,3.153-3.823,3.153-1.51,0-3.747-.857-3.747-2.07a1.264,1.264,0,0,1,1.156-1.193c1.044,0,1.511.914,2.779.914.819,0,1.063-.262,1.063-.764,0-1.232-4.663-1.045-4.663-4.123,0-1.865,1.511-3.132,3.637-3.132,1.324,0,3.357.615,3.357,1.939A1.159,1.159,0,0,1,419.033,259.245Z"
				transform="translate(-412.805 -256.113)"
				fill="#f5f5f5"
			/>
		</g>
		<g id="Grupo_86" data-name="Grupo 86" transform="translate(75.15 0)">
			<path
				id="Caminho_76"
				data-name="Caminho 76"
				d="M442.536,262.619a1.356,1.356,0,0,1-1.342,1.492,1.284,1.284,0,0,1-1.343-1.119,2.928,2.928,0,0,1-2.462,1.231c-2.7,0-4.42-2.517-4.42-5.054,0-2.611,1.436-5.315,4.327-5.315a3.894,3.894,0,0,1,2.555.932V251.13a1.35,1.35,0,1,1,2.685,0Zm-4.792-6.3c-1.4,0-2.089,1.473-2.089,2.74,0,1.251.69,2.7,2.089,2.7,1.473,0,2.107-1.491,2.107-2.8S439.179,256.316,437.744,256.316Z"
				transform="translate(-432.969 -249.64)"
				fill="#f5f5f5"
			/>
		</g>
		<g id="Grupo_87" data-name="Grupo 87" transform="translate(85.668 4.214)">
			<path
				id="Caminho_77"
				data-name="Caminho 77"
				d="M451.866,262.192a2.32,2.32,0,0,0,2.536,1.94c1.38,0,2.331-1.082,3.04-1.082a1.192,1.192,0,0,1,1.1,1.156c0,1.157-2.387,2.276-4.383,2.276a4.892,4.892,0,0,1-5.034-5.167,4.828,4.828,0,1,1,9.642-.315c0,.8-.355,1.193-1.175,1.193Zm4.215-1.79a2.127,2.127,0,0,0-2.145-2.052,2.163,2.163,0,0,0-2.126,2.052Z"
				transform="translate(-449.125 -256.113)"
				fill="#f5f5f5"
			/>
		</g>
		<g id="Grupo_88" data-name="Grupo 88" transform="translate(100.81 0.857)">
			<path
				id="Caminho_78"
				data-name="Caminho 78"
				d="M478.8,250.957c1.361,0,4.009.448,4.009,2.089a1.183,1.183,0,0,1-1.156,1.249c-.765,0-1.286-.652-2.853-.652-2.313,0-3.506,1.958-3.506,4.233,0,2.22,1.212,4.122,3.506,4.122,1.566,0,2.2-.783,2.965-.783a1.312,1.312,0,0,1,1.231,1.267c0,1.79-2.816,2.2-4.2,2.2-3.786,0-6.415-3-6.415-6.863C472.383,253.941,474.994,250.957,478.8,250.957Z"
				transform="translate(-472.383 -250.957)"
				fill="#f5f5f5"
			/>
		</g>
		<g id="Grupo_89" data-name="Grupo 89" transform="translate(112.259 4.214)">
			<path
				id="Caminho_79"
				data-name="Caminho 79"
				d="M499.593,261.315a4.824,4.824,0,1,1-9.624,0,4.826,4.826,0,1,1,9.624,0Zm-6.937,0c0,1.288.671,2.7,2.125,2.7s2.126-1.417,2.126-2.7-.654-2.74-2.126-2.74S492.655,260.028,492.655,261.315Z"
				transform="translate(-489.969 -256.113)"
				fill="#f5f5f5"
			/>
		</g>
		<g id="Grupo_90" data-name="Grupo 90" transform="translate(122.981 4.326)">
			<path
				id="Caminho_80"
				data-name="Caminho 80"
				d="M506.439,257.627a1.32,1.32,0,0,1,1.381-1.342c.708,0,1.306.26,1.306,1.119h.036a2.119,2.119,0,0,1,1.884-1.119,1.31,1.31,0,0,1,1.305,1.436c0,.876-.8.932-1.6,1.305s-1.622.727-1.622,1.79v4.121a1.351,1.351,0,1,1-2.687,0Z"
				transform="translate(-506.439 -256.285)"
				fill="#f5f5f5"
			/>
		</g>
		<g id="Grupo_91" data-name="Grupo 91" transform="translate(128.838 4.214)">
			<path
				id="Caminho_81"
				data-name="Caminho 81"
				d="M525,264.617c0,.689,0,1.752-1.288,1.752-.783,0-1.1-.429-1.286-1.138a3.213,3.213,0,0,1-2.556,1.25c-2.518,0-4.437-2.144-4.437-5.167,0-2.945,1.977-5.2,4.437-5.2a3.07,3.07,0,0,1,2.556,1.231,1.275,1.275,0,0,1,1.286-1.119c1.288,0,1.288,1.063,1.288,1.753Zm-4.756-.6c1.4,0,2.07-1.417,2.07-2.7s-.652-2.74-2.07-2.74c-1.474,0-2.126,1.453-2.126,2.74S518.792,264.02,520.246,264.02Z"
				transform="translate(-515.435 -256.113)"
				fill="#f5f5f5"
			/>
		</g>
		<g id="Grupo_92" data-name="Grupo 92" transform="translate(139.541 4.214)">
			<path
				id="Caminho_82"
				data-name="Caminho 82"
				d="M536.519,267.21c.13,0,.279-.057.41-.057a1.335,1.335,0,0,1,1.4,1.417,1.9,1.9,0,0,1-2.07,1.753c-.54,0-1.678-.112-1.678-.932a.452.452,0,0,1,.449-.486c.186,0,.559.168.894.187s.616-.075.616-.523c0-.5-.317-.522-.635-.522-.316-.036-.633,0-.633-.43a2.276,2.276,0,0,1,.41-.745l.317-.447a4.927,4.927,0,0,1-4.122-5.111,5,5,0,0,1,4.812-5.2c1.062,0,3.282.392,3.282,1.7,0,.56-.392,1.286-1.026,1.286-.672,0-1.266-.521-2.126-.521-1.529,0-2.256,1.36-2.256,2.74a2.472,2.472,0,0,0,2.256,2.7,14.8,14.8,0,0,0,2-.559,1.178,1.178,0,0,1,1.156,1.174c0,1.231-1.827,1.734-2.872,1.809Z"
				transform="translate(-531.875 -256.113)"
				fill="#f5f5f5"
			/>
		</g>
		<g id="Grupo_93" data-name="Grupo 93" transform="translate(148.175 0.392)">
			<path
				id="Caminho_83"
				data-name="Caminho 83"
				d="M554.7,262.569c0,.689,0,1.753-1.287,1.753-.783,0-1.1-.429-1.286-1.138a3.211,3.211,0,0,1-2.555,1.25c-2.518,0-4.438-2.144-4.438-5.167,0-2.945,1.977-5.2,4.438-5.2a3.068,3.068,0,0,1,2.555,1.231,1.276,1.276,0,0,1,1.286-1.119c1.287,0,1.287,1.063,1.287,1.753Zm-7.683-10.612a1.642,1.642,0,0,1,1.772-1.641,3.973,3.973,0,0,1,1.194.224,3.241,3.241,0,0,0,.895.242c.374,0,.95-.54,1.454-.54a.941.941,0,0,1,.877,1.044,1.8,1.8,0,0,1-1.829,1.623c-.614,0-1.677-.467-2.106-.467-.467,0-.69.484-1.324.484A1.038,1.038,0,0,1,547.022,251.957Zm2.927,10.014c1.4,0,2.07-1.417,2.07-2.705s-.652-2.74-2.07-2.74c-1.473,0-2.126,1.453-2.126,2.74S548.5,261.971,549.949,261.971Z"
				transform="translate(-545.138 -250.242)"
				fill="#f5f5f5"
			/>
		</g>
		<g id="Grupo_94" data-name="Grupo 94" transform="translate(158.879 4.214)">
			<path
				id="Caminho_84"
				data-name="Caminho 84"
				d="M571.2,261.315a4.824,4.824,0,1,1-9.624,0,4.826,4.826,0,1,1,9.624,0Zm-6.937,0c0,1.288.671,2.7,2.126,2.7s2.125-1.417,2.125-2.7-.652-2.74-2.125-2.74S564.265,260.028,564.265,261.315Z"
				transform="translate(-561.579 -256.113)"
				fill="#f5f5f5"
			/>
		</g>
	</g>
	<g id="Grupo_96" data-name="Grupo 96" transform="translate(180.969)">
		<path
			id="Caminho_85"
			data-name="Caminho 85"
			d="M637.164,216.493l37.671-33.332a16.858,16.858,0,1,0-23.842-23.839l-13.828,11.193-13.784-11.193a16.859,16.859,0,1,0-23.845,23.839Z"
			transform="translate(-594.598 -154.383)"
			fill="#f5f5f5"
		/>
	</g>
</svg>
